<svg xmlns="http://www.w3.org/2000/svg" viewBox="0 0 160 120"><defs><radialGradient id="bubble" cx=".3" cy=".25" r=".85"><stop stop-color="#ffffff" stop-opacity=".8"/><stop offset=".45" stop-color="#d8eafa" stop-opacity=".25"/><stop offset=".78" stop-color="#d9c4ed" stop-opacity=".65"/><stop offset="1" stop-color="#a6e3e4" stop-opacity=".8"/></radialGradient></defs><g><circle cx="40" cy="75" r="27" fill="url(#bubble)" stroke="#9588c4" stroke-width="2"/><path d="M23.8 72.3Q23.8 56.64 37.3 55.56" stroke="white" stroke-width="4" stroke-linecap="round" fill="none"/><circle cx="51.61" cy="87.96" r="3.2399999999999998" fill="#fff"/></g><g><circle cx="95" cy="48" r="37" fill="url(#bubble)" stroke="#9588c4" stroke-width="2"/><path d="M72.8 44.3Q72.8 22.84 91.3 21.36" stroke="white" stroke-width="4" stroke-linecap="round" fill="none"/><circle cx="110.91" cy="65.75999999999999" r="4.4399999999999995" fill="#fff"/></g><g><circle cx="127" cy="94" r="16" fill="url(#bubble)" stroke="#9588c4" stroke-width="2"/><path d="M117.4 92.4Q117.4 83.12 125.4 82.48" stroke="white" stroke-width="4" stroke-linecap="round" fill="none"/><circle cx="133.88" cy="101.68" r="1.92" fill="#fff"/></g><g><circle cx="26" cy="23" r="12" fill="url(#bubble)" stroke="#9588c4" stroke-width="2"/><path d="M18.8 21.8Q18.8 14.84 24.8 14.36" stroke="white" stroke-width="4" stroke-linecap="round" fill="none"/><circle cx="31.16" cy="28.759999999999998" r="1.44" fill="#fff"/></g><path transform="translate(135 15) scale(0.55)" d="M0-12 4-4 12 0 4 4 0 12-4 4-12 0-4-4Z" fill="#fff"/><path transform="translate(72 102) scale(0.7)" d="M0-12 4-4 12 0 4 4 0 12-4 4-12 0-4-4Z" fill="#fff"/></svg>
