<svg xmlns="http://www.w3.org/2000/svg" viewBox="0 0 160 120"><defs><radialGradient id="bubble" cx=".3" cy=".25" r=".85"><stop stop-color="#ffffff" stop-opacity=".8"/><stop offset=".45" stop-color="#d8eafa" stop-opacity=".25"/><stop offset=".78" stop-color="#d9c4ed" stop-opacity=".65"/><stop offset="1" stop-color="#a6e3e4" stop-opacity=".8"/></radialGradient></defs><path d="M5 100Q65 84 139 19M74 69 73 22M101 50l44 19" fill="none" stroke="#986a76" stroke-width="7"/><g transform="translate(40 84) scale(0.9)" fill="#ffdbec" stroke="#b66b91" stroke-width="2"><path d="M0-4C-25-30-28 8-7 8C-19 33 17 32 7 8C31 11 25-24 4-7C14-31-18-33 0-4Z"/><circle r="5" fill="#ffdc88"/></g><g transform="translate(80 34) scale(1.1)" fill="#ffdbec" stroke="#b66b91" stroke-width="2"><path d="M0-4C-25-30-28 8-7 8C-19 33 17 32 7 8C31 11 25-24 4-7C14-31-18-33 0-4Z"/><circle r="5" fill="#ffdc88"/></g><g transform="translate(120 56) scale(0.85)" fill="#ffdbec" stroke="#b66b91" stroke-width="2"><path d="M0-4C-25-30-28 8-7 8C-19 33 17 32 7 8C31 11 25-24 4-7C14-31-18-33 0-4Z"/><circle r="5" fill="#ffdc88"/></g><path transform="translate(60 76) rotate(60)" d="M0 0Q-22-25 4-31Q18-10 0 0Z" fill="#83b47b" stroke="#47745a" stroke-width="2"/><path d="M134 91q24-13 13 8q-15 8-13-8" fill="#f2aac9"/></svg>
