<svg xmlns="http://www.w3.org/2000/svg" viewBox="0 0 160 120"><defs><radialGradient id="bubble" cx=".3" cy=".25" r=".85"><stop stop-color="#ffffff" stop-opacity=".8"/><stop offset=".45" stop-color="#d8eafa" stop-opacity=".25"/><stop offset=".78" stop-color="#d9c4ed" stop-opacity=".65"/><stop offset="1" stop-color="#a6e3e4" stop-opacity=".8"/></radialGradient></defs><path d="M12 106Q45 67 75 98Q116 64 151 106" fill="#a3cc86"/><path d="M43 95 37 44m55 51 12-63" stroke="#5e9166" stroke-width="5"/><path transform="translate(40 81) rotate(70)" d="M0 0Q-22-25 4-31Q18-10 0 0Z" fill="#83b47b" stroke="#47745a" stroke-width="2"/><path transform="translate(97 72) rotate(-65)" d="M0 0Q-22-25 4-31Q18-10 0 0Z" fill="#83b47b" stroke="#47745a" stroke-width="2"/><g transform="translate(37 37) scale(0.8)" fill="#ffdbec" stroke="#b66b91" stroke-width="2"><path d="M0-4C-25-30-28 8-7 8C-19 33 17 32 7 8C31 11 25-24 4-7C14-31-18-33 0-4Z"/><circle r="5" fill="#ffdc88"/></g><g transform="translate(108 33) scale(1.1)" fill="#ffdbec" stroke="#b66b91" stroke-width="2"><path d="M0-4C-25-30-28 8-7 8C-19 33 17 32 7 8C31 11 25-24 4-7C14-31-18-33 0-4Z"/><circle r="5" fill="#ffdc88"/></g><path d="M132 77q-21-27-22-7q-1 16 22 9q22 13 21-6q-2-21-21 4" fill="#ffdf86" stroke="#9d884f" stroke-width="2"/></svg>
